<svg xmlns="http://www.w3.org/2000/svg" width="100" height="100" viewBox="0 0 100 100">
  <path d="M64.6593217,60.8658865 C62.541764,61.3037333 60.2747551,61.6484925 57.8900305,61.8900716 C49.8240095,73.549636 40.2756258,80.3427596 34.6604933,77.1008614 C30.6900903,74.8085482 30.0524925,68.346963 32.2198262,60.1253041 C24.0507326,57.8996313 18.6817851,54.1092791 18.6817851,49.5072198 C18.6817851,46.5901379 20.7905861,44.0104355 24.4798411,41.9305034 L29.7945561,38.5673674 L26.5377142,48.7899946 L24.4868229,45.4519367 C22.6161565,46.7871899 21.6668597,48.1904325 21.6668597,49.5072198 C21.6668597,52.4884781 26.1398058,55.3876951 33.0701078,57.2469812 C33.7349933,55.2070021 34.5546109,53.0832908 35.5218949,50.9080948 C29.3201341,37.963978 28.1437944,26.1257597 33.8069731,22.856122 C37.813182,20.5431362 43.79891,23.2911423 49.8919142,29.3930248 C55.9452207,23.3471295 61.9661969,20.5394975 65.9787082,22.856122 C68.5049753,24.3146629 69.6846626,27.4307894 69.6413091,31.6657439 L69.8965129,37.9499901 L62.6718789,30.0181688 L66.5881675,29.9110738 C66.3671375,27.6234026 65.6265422,26.0996661 64.4861709,25.4412724 C61.8821144,23.9378197 57.0752172,26.4167171 51.950659,31.5783859 C53.4010252,33.2053143 54.8455306,35.0113678 56.2589283,36.9735264 C70.5242286,38.0885719 81.3182149,42.9819488 81.3182149,49.5072198 C81.3182149,54.1394833 75.9308827,57.953343 67.5806109,60.1778092 C69.7033122,68.3137464 69.0927783,74.810172 65.125188,77.1008614 C62.5989209,78.5594024 59.3104325,78.0229783 55.6645311,75.8679559 L50.0946124,72.9468456 L60.5760881,70.6560398 L58.7106908,74.1011927 C60.8023872,75.0536107 62.4922793,75.1741046 63.6326506,74.5157109 C66.2026187,73.0319392 66.4862457,67.7506851 64.6593217,60.8658865 Z M52.3774352,36.767241 C51.552458,35.7055075 50.7231134,34.7062646 49.8968271,33.7734824 C49.0674552,34.7111077 48.2363544,35.7131904 47.4112817,36.774383 C48.2678151,36.7470367 49.1312898,36.7332214 50,36.7332214 C50.7996606,36.7332214 51.5925014,36.7446674 52.3774352,36.767241 Z M47.8329546,31.5734256 C42.6430703,26.3658012 37.8283394,23.9812523 35.2995104,25.4412724 C32.8128081,26.8769707 32.4666941,31.8680643 34.1019174,38.4270286 C37.0100362,37.7529421 40.180303,37.2700186 43.5036415,36.9964524 C44.9166599,35.0288088 46.3691628,33.2121634 47.8329546,31.5734256 Z M34.9155732,41.3028467 C36.2387222,45.5035265 38.2747266,50.1723459 40.9886238,54.8729536 C41.8147686,56.3038785 42.6753671,57.6907312 43.5618367,59.0232844 C45.6288592,59.2009277 47.7838836,59.2961437 50,59.2961437 C50.8243056,59.2961437 51.4925373,59.9643754 51.4925373,60.788681 C51.4925373,61.6129866 50.8243056,62.2812183 50,62.2812183 C48.5695293,62.2812183 47.1608821,62.2445911 45.7802806,62.1731606 C47.1185019,63.9667428 48.4963771,65.6286278 49.8877487,67.1276451 C52.9263392,63.8488398 56.0242411,59.6756126 58.7970575,54.8729536 C59.5666656,53.5399533 60.2882016,52.2001827 60.9579743,50.8637845 C60.0705436,48.9631486 59.0649091,47.0263028 57.9435372,45.0840298 C57.5313844,44.3701602 57.7759742,43.4573387 58.4898438,43.0451859 C59.2037134,42.6330331 60.1165349,42.8776229 60.5286877,43.5914924 C61.2604039,44.858862 61.9475009,46.1256182 62.5883388,47.3850147 C63.4965536,45.3020222 64.2684447,43.2493037 64.8896002,41.2664607 C60.568479,40.2984684 55.4703629,39.718296 50,39.718296 C48.3552167,39.718296 46.7311845,39.7696995 45.1408731,39.870219 C44.008141,41.5064469 42.9014209,43.2493084 41.842144,45.0840298 C41.4299912,45.7978993 40.5171697,46.0424891 39.8033002,45.6303363 C39.0894306,45.2181835 38.8448408,44.305362 39.2569936,43.5914924 C39.9265625,42.4317651 40.6143673,41.3046508 41.3165599,40.2138223 C39.0734902,40.4772394 36.9261121,40.8426666 34.9155732,41.3028467 Z M47.7920326,69.2574186 C45.7668727,67.0863273 43.7760845,64.596909 41.8886907,61.8729848 C39.5156246,61.6276976 37.2523262,61.2757516 35.1348632,60.8277189 C33.2896677,67.8106012 33.6518698,73.071665 36.1530306,74.5157109 C38.6046139,75.9311332 43.0086277,73.8169031 47.7920257,69.2574252 Z M39.7342005,58.5879675 C39.2820021,57.8594873 38.8380594,57.1182161 38.4034733,56.3654909 C38.0213681,55.7036654 37.6514305,55.0420071 37.2938939,54.3814768 C36.8066576,55.5967426 36.3734284,56.7849638 35.9939477,57.9382288 C37.1886762,58.1853006 38.4380845,58.403143 39.7342005,58.5879675 Z M63.8014881,57.9862469 C63.4169415,56.8176813 62.9786113,55.6154433 62.4872248,54.3886108 C62.1302939,55.0486631 61.7618201,55.7079835 61.382208,56.3654909 C60.9382288,57.1344854 60.4862317,57.8891407 60.0273385,58.628386 C61.3381149,58.4468556 62.5984419,58.2313934 63.8014881,57.9862469 Z M66.7377041,57.3002409 C73.8530925,55.409724 78.3331403,52.4297408 78.3331403,49.5072198 C78.3331403,46.6505617 74.2262697,43.8692304 67.7858125,42.0059617 C66.8959706,44.8754465 65.7093773,47.873848 64.2650664,50.8969325 C65.2413715,53.086414 66.0685946,55.2332363 66.7377041,57.3002409 Z M50,54.8507463 C47.1149304,54.8507463 44.7761194,52.5119353 44.7761194,49.6268657 C44.7761194,46.7417961 47.1149304,44.4029851 50,44.4029851 C52.8850696,44.4029851 55.2238806,46.7417961 55.2238806,49.6268657 C55.2238806,52.5119353 52.8850696,54.8507463 50,54.8507463 Z M50,51.8656716 C51.2364584,51.8656716 52.238806,50.8633241 52.238806,49.6268657 C52.238806,48.3904073 51.2364584,47.3880597 50,47.3880597 C48.7635416,47.3880597 47.761194,48.3904073 47.761194,49.6268657 C47.761194,50.8633241 48.7635416,51.8656716 50,51.8656716 Z"/>
</svg>
