<svg xmlns="http://www.w3.org/2000/svg" width="201" height="168" viewBox="0 0 201 168">
  <g fill="none" fill-rule="evenodd">
    <path fill="#000" d="M43.109363,121.024 L38.281363,121.024 L38.281363,130 L34.677363,130 L34.677363,107.56 L43.823363,107.56 C46.2487085,107.56 48.1640226,108.154994 49.569363,109.345 C50.9747034,110.535006 51.677363,112.183989 51.677363,114.292 C51.677363,115.901341 51.2637005,117.244328 50.436363,118.321 C49.6090255,119.397672 48.4360373,120.162664 46.917363,120.616 L53.003363,130 L48.821363,130 L43.109363,121.024 Z M38.281363,117.998 L43.517363,117.998 C44.9907037,117.998 46.090026,117.69767 46.815363,117.097 C47.5407,116.49633 47.903363,115.572673 47.903363,114.326 C47.903363,113.079327 47.5407,112.15567 46.815363,111.555 C46.090026,110.95433 44.9907037,110.654 43.517363,110.654 L38.281363,110.654 L38.281363,117.998 Z M70.655545,120.99 C70.655545,121.647337 70.6102121,122.270664 70.519545,122.86 L58.075545,122.86 C58.279546,124.356007 58.8122074,125.494996 59.673545,126.277 C60.5348826,127.059004 61.6455382,127.45 63.005545,127.45 C64.1162172,127.45 65.0398747,127.251669 65.776545,126.855 C66.5132153,126.458331 67.0175436,125.886004 67.289545,125.138 L70.315545,126.396 C69.0462053,129.025346 66.609563,130.34 63.005545,130.34 C60.330865,130.34 58.2398859,129.558008 56.732545,127.994 C55.2252041,126.429992 54.471545,124.265347 54.471545,121.5 C54.471545,118.711986 55.1968711,116.541674 56.647545,114.989 C58.0982189,113.436326 60.1381985,112.66 62.767545,112.66 C65.2608908,112.66 67.1988714,113.419326 68.581545,114.938 C69.9642186,116.456674 70.655545,118.473987 70.655545,120.99 Z M62.767545,115.55 C61.4528718,115.55 60.3932157,115.935329 59.588545,116.706 C58.7838743,117.476671 58.279546,118.598659 58.075545,120.072 L67.255545,120.072 C67.0742108,118.643993 66.5925489,117.533337 65.810545,116.74 C65.0285411,115.946663 64.0142179,115.55 62.767545,115.55 Z M83.275727,112.66 C85.1570697,112.66 86.6927211,113.203995 87.882727,114.292 C89.072733,115.380005 89.667727,116.94399 89.667727,118.984 L89.667727,130 L86.029727,130 L86.029727,120.14 C86.029727,117.147985 84.8170725,115.652 82.391727,115.652 C81.1223873,115.652 80.0343982,116.093996 79.127727,116.978 C78.2210558,117.862004 77.767727,119.210658 77.767727,121.024 L77.767727,130 L74.129727,130 L74.129727,105.35 L77.767727,105.35 L77.767727,115.72 C78.3343965,114.677328 79.0880556,113.906669 80.028727,113.408 C80.9693984,112.909331 82.0517209,112.66 83.275727,112.66 Z M101.573909,112.66 C104.225922,112.66 106.299902,113.441992 107.795909,115.006 C109.291916,116.570008 110.039909,118.734653 110.039909,121.5 C110.039909,124.265347 109.291916,126.429992 107.795909,127.994 C106.299902,129.558008 104.225922,130.34 101.573909,130.34 C98.9218957,130.34 96.8479165,129.558008 95.351909,127.994 C93.8559015,126.429992 93.107909,124.265347 93.107909,121.5 C93.107909,118.734653 93.8559015,116.570008 95.351909,115.006 C96.8479165,113.441992 98.9218957,112.66 101.573909,112.66 Z M101.573909,115.516 C100.032568,115.516 98.8482465,116.031662 98.020909,117.063 C97.1935715,118.094338 96.779909,119.573324 96.779909,121.5 C96.779909,123.426676 97.1935715,124.905662 98.020909,125.937 C98.8482465,126.968338 100.032568,127.484 101.573909,127.484 C103.11525,127.484 104.305238,126.962672 105.143909,125.92 C105.98258,124.877328 106.401909,123.40401 106.401909,121.5 C106.401909,119.59599 105.98258,118.122672 105.143909,117.08 C104.305238,116.037328 103.11525,115.516 101.573909,115.516 Z M121.096091,112.66 C123.748104,112.66 125.822084,113.441992 127.318091,115.006 C128.814098,116.570008 129.562091,118.734653 129.562091,121.5 C129.562091,124.265347 128.814098,126.429992 127.318091,127.994 C125.822084,129.558008 123.748104,130.34 121.096091,130.34 C118.444078,130.34 116.370098,129.558008 114.874091,127.994 C113.378084,126.429992 112.630091,124.265347 112.630091,121.5 C112.630091,118.734653 113.378084,116.570008 114.874091,115.006 C116.370098,113.441992 118.444078,112.66 121.096091,112.66 Z M121.096091,115.516 C119.55475,115.516 118.370428,116.031662 117.543091,117.063 C116.715754,118.094338 116.302091,119.573324 116.302091,121.5 C116.302091,123.426676 116.715754,124.905662 117.543091,125.937 C118.370428,126.968338 119.55475,127.484 121.096091,127.484 C122.637432,127.484 123.82742,126.962672 124.666091,125.92 C125.504762,124.877328 125.924091,123.40401 125.924091,121.5 C125.924091,119.59599 125.504762,118.122672 124.666091,117.08 C123.82742,116.037328 122.637432,115.516 121.096091,115.516 Z M140.142273,122.01 L136.776273,125.478 L136.776273,130 L133.138273,130 L133.138273,105.35 L136.776273,105.35 L136.776273,121.33 L144.902273,113 L149.186273,113 L142.692273,119.664 L149.594273,130 L145.378273,130 L140.142273,122.01 Z M157.726455,130.34 C156.00378,130.34 154.479462,130.045336 153.153455,129.456 C151.827448,128.866664 150.824458,127.971339 150.144455,126.77 L152.592455,124.662 C153.023124,125.636672 153.691784,126.350664 154.598455,126.804 C155.505126,127.257336 156.593115,127.484 157.862455,127.484 C159.018461,127.484 159.913785,127.297002 160.548455,126.923 C161.183125,126.548998 161.500455,126.056003 161.500455,125.444 C161.500455,124.899997 161.205791,124.463668 160.616455,124.135 C160.027119,123.806332 159.007129,123.494668 157.556455,123.2 C155.040442,122.723998 153.27246,122.089337 152.252455,121.296 C151.23245,120.502663 150.722455,119.380674 150.722455,117.93 C150.722455,117.000662 151.005786,116.133671 151.572455,115.329 C152.139125,114.524329 152.960783,113.878336 154.037455,113.391 C155.114127,112.903664 156.389114,112.66 157.862455,112.66 C159.743798,112.66 161.251116,112.971664 162.384455,113.595 C163.517794,114.218336 164.390452,115.187327 165.002455,116.502 L162.418455,118.406 C162.010453,117.408662 161.438125,116.677669 160.701455,116.213 C159.964785,115.748331 159.029794,115.516 157.896455,115.516 C156.87645,115.516 156.032125,115.725665 155.363455,116.145 C154.694785,116.564335 154.360455,117.045997 154.360455,117.59 C154.360455,118.202003 154.660785,118.689332 155.261455,119.052 C155.862125,119.414668 156.95578,119.743332 158.542455,120.038 C160.945134,120.468669 162.645117,121.080663 163.642455,121.874 C164.639793,122.667337 165.138455,123.777993 165.138455,125.206 C165.138455,126.724674 164.481128,127.959995 163.166455,128.912 C161.851782,129.864005 160.038467,130.34 157.726455,130.34 Z"/>
    <path fill="#000" fill-rule="nonzero" d="M114.977537,72.824226 C112.859979,73.2620729 110.59297,73.606832 108.208245,73.8484112 C100.142224,85.5079756 90.5938407,92.3010992 84.9787082,89.059201 C81.0083052,86.7668877 80.3707074,80.3053026 82.5380411,72.0836436 C74.3689475,69.8579709 69,66.0676186 69,61.4655594 C69,58.5484775 71.108801,55.968775 74.798056,53.888843 L80.112771,50.525707 L76.8559291,60.7483342 L74.8050378,57.4102763 C72.9343714,58.7455295 71.9850746,60.148772 71.9850746,61.4655594 C71.9850746,64.4468177 76.4580207,67.3460346 83.3883227,69.2053208 C84.0532082,67.1653417 84.8728258,65.0416304 85.8401098,62.8664344 C79.638349,49.9223175 78.4620093,38.0840992 84.125188,34.8144615 C88.1313969,32.5014757 94.1171249,35.2494819 100.210129,41.3513643 C106.263436,35.305469 112.284412,32.497837 116.296923,34.8144615 C118.82319,36.2730025 120.002878,39.389129 119.959524,43.6240835 L120.214728,49.9083297 L112.990094,41.9765084 L116.906382,41.8694133 C116.685352,39.5817421 115.944757,38.0580057 114.804386,37.399612 C112.200329,35.8961593 107.393432,38.3750567 102.268874,43.5367255 C103.71924,45.1636538 105.163745,46.9697074 106.577143,48.9318659 C120.842443,50.0469115 131.63643,54.9402884 131.63643,61.4655594 C131.63643,66.0978229 126.249098,69.9116825 117.898826,72.1361488 C120.021527,80.272086 119.410993,86.7685116 115.443403,89.059201 C112.917136,90.5177419 109.628647,89.9813179 105.982746,87.8262954 L100.412827,84.9051852 L110.894303,82.6143794 L109.028906,86.0595323 C111.120602,87.0119503 112.810494,87.1324442 113.950866,86.4740505 C116.520834,84.9902787 116.804461,79.7090246 114.977537,72.824226 Z M102.69565,48.7255806 C101.870673,47.663847 101.041328,46.6646042 100.215042,45.731822 C99.3856701,46.6694473 98.5545693,47.67153 97.7294967,48.7327225 C98.58603,48.7053763 99.4495047,48.6915609 100.318215,48.6915609 C101.117876,48.6915609 101.910716,48.703007 102.69565,48.7255806 Z M98.1511695,43.5317651 C92.9612852,38.3241407 88.1465543,35.9395919 85.6177253,37.399612 C83.131023,38.8353102 82.784909,43.8264038 84.4201323,50.3853681 C87.3282511,49.7112816 90.4985179,49.2283581 93.8218564,48.954792 C95.2348748,46.9871483 96.6873777,45.170503 98.1511695,43.5317651 Z M85.2337881,53.2611862 C86.5569371,57.461866 88.5929415,62.1306854 91.3068387,66.8312932 C92.1329835,68.2622181 92.993582,69.6490707 93.8800516,70.981624 C95.9470741,71.1592673 98.1020985,71.2544833 100.318215,71.2544833 C101.14252,71.2544833 101.810752,71.922715 101.810752,72.7470206 C101.810752,73.5713262 101.14252,74.2395579 100.318215,74.2395579 C98.8877442,74.2395579 97.479097,74.2029307 96.0984955,74.1315002 C97.4367168,75.9250824 98.814592,77.5869673 100.205964,79.0859847 C103.244554,75.8071793 106.342456,71.6339521 109.115272,66.8312932 C109.88488,65.4982929 110.606416,64.1585223 111.276189,62.8221241 C110.388759,60.9214881 109.383124,58.9846424 108.261752,57.0423693 C107.849599,56.3284997 108.094189,55.4156782 108.808059,55.0035254 C109.521928,54.5913726 110.43475,54.8359624 110.846903,55.549832 C111.578619,56.8172016 112.265716,58.0839577 112.906554,59.3433543 C113.814768,57.2603618 114.58666,55.2076433 115.207815,53.2248002 C110.886694,52.256808 105.788578,51.6766355 100.318215,51.6766355 C98.6734316,51.6766355 97.0493994,51.7280391 95.459088,51.8285586 C94.3263559,53.4647865 93.2196358,55.207648 92.1603589,57.0423693 C91.7482061,57.7562389 90.8353846,58.0008287 90.1215151,57.5886759 C89.4076455,57.1765231 89.1630557,56.2637016 89.5752085,55.549832 C90.2447774,54.3901047 90.9325822,53.2629904 91.6347748,52.1721618 C89.3917051,52.435579 87.244327,52.8010062 85.2337881,53.2611862 Z M98.1102475,81.2157581 C96.0850876,79.0446668 94.0942994,76.5552486 92.2069056,73.8313243 C89.8338395,73.5860372 87.5705411,73.2340912 85.4530781,72.7860585 C83.6078826,79.7689408 83.9700847,85.0300046 86.4712455,86.4740505 C88.9228288,87.8894727 93.3268426,85.7752426 98.1102407,81.2157647 Z M90.0524154,70.5463071 C89.600217,69.8178269 89.1562743,69.0765557 88.7216882,68.3238305 C88.339583,67.6620049 87.9696454,67.0003466 87.6121088,66.3398163 C87.1248725,67.5550821 86.6916433,68.7433033 86.3121626,69.8965684 C87.5068911,70.1436402 88.7562994,70.3614826 90.0524154,70.5463071 Z M114.119703,69.9445864 C113.735156,68.7760209 113.296826,67.5737828 112.80544,66.3469504 C112.448509,67.0070027 112.080035,67.6663231 111.700423,68.3238305 C111.256444,69.092825 110.804447,69.8474802 110.345553,70.5867255 C111.65633,70.4051952 112.916657,70.189733 114.119703,69.9445864 Z M117.055919,69.2585805 C124.171307,67.3680635 128.651355,64.3880803 128.651355,61.4655594 C128.651355,58.6089012 124.544485,55.8275699 118.104027,53.9643013 C117.214185,56.833786 116.027592,59.8321876 114.583281,62.8552721 C115.559586,65.0447536 116.38681,67.1915758 117.055919,69.2585805 Z M100.318215,66.8090858 C97.4331453,66.8090858 95.0943343,64.4702748 95.0943343,61.5852052 C95.0943343,58.7001356 97.4331453,56.3613246 100.318215,56.3613246 C103.203284,56.3613246 105.542095,58.7001356 105.542095,61.5852052 C105.542095,64.4702748 103.203284,66.8090858 100.318215,66.8090858 Z M100.318215,63.8240112 C101.554673,63.8240112 102.557021,62.8216636 102.557021,61.5852052 C102.557021,60.3487468 101.554673,59.3463993 100.318215,59.3463993 C99.0817565,59.3463993 98.0794089,60.3487468 98.0794089,61.5852052 C98.0794089,62.8216636 99.0817565,63.8240112 100.318215,63.8240112 Z"/>
  </g>
</svg>
